<?xml version="1.0" encoding="UTF-8"?>
<svg id="_图层_1" data-name="图层 1" xmlns="http://www.w3.org/2000/svg" viewBox="0 0 181.88 182.29">
  <g>
    <line x1="26.38" y1="156" x2="26.38" y2="8.86" style="fill: none; stroke: #231815; stroke-miterlimit: 10;"/>
    <polygon points="29.29 10.84 26.38 0 23.48 10.84 29.29 10.84" style="fill: #231815; stroke-width: 0px;"/>
  </g>
  <g>
    <line x1="25.88" y1="156.5" x2="173.02" y2="156.5" style="fill: none; stroke: #231815; stroke-miterlimit: 10;"/>
    <polygon points="171.04 159.41 181.88 156.5 171.04 153.6 171.04 159.41" style="fill: #231815; stroke-width: 0px;"/>
  </g>
  <g>
    <rect x="61.22" y="8.55" width="51.75" height="67" transform="translate(-9.26 33.74) rotate(-20.84)" style="fill: none; stroke: #c1301f; stroke-miterlimit: 10;"/>
    <circle cx="89.34" cy="59.88" r="2.25" style="fill: none; stroke: #c1301f; stroke-miterlimit: 10;"/>
  </g>
  <g>
    <rect x="10.38" y="107.91" width="51.75" height="67" transform="translate(49.57 -3.97) rotate(19.61)" style="fill: none; stroke: #343993; stroke-miterlimit: 10;"/>
    <circle cx="26.4" cy="156.43" r="2.25" style="fill: none; stroke: #343993; stroke-miterlimit: 10;"/>
  </g>
  <g>
    <line x1="73.47" y1="86.09" x2="72.16" y2="87.59" style="fill: none; stroke: #a5a5a5; stroke-miterlimit: 10;"/>
    <line x1="69.21" y1="90.96" x2="58.88" y2="102.75" style="fill: none; stroke: #a5a5a5; stroke-dasharray: 0 0 4.48 4.48; stroke-miterlimit: 10;"/>
    <line x1="57.4" y1="104.44" x2="56.08" y2="105.94" style="fill: none; stroke: #a5a5a5; stroke-miterlimit: 10;"/>
    <polygon points="55.56 103.9 52.58 109.94 58.18 106.2 55.56 103.9" style="fill: #a5a5a5; stroke-width: 0px;"/>
  </g>
  <g>
    <g>
      <line x1="89.5" y1="60.2" x2="76.03" y2="42.62" style="fill: none; stroke: #a5a5a5; stroke-miterlimit: 10; stroke-width: .75px;"/>
      <polygon points="78 42.51 73 38.67 75.41 44.5 78 42.51" style="fill: #a5a5a5; stroke-width: 0px;"/>
    </g>
    <g>
      <line x1="106.7" y1="46.66" x2="89.13" y2="60.13" style="fill: none; stroke: #a5a5a5; stroke-miterlimit: 10; stroke-width: .75px;"/>
      <polygon points="104.82 46.04 110.65 43.63 106.81 48.63 104.82 46.04" style="fill: #a5a5a5; stroke-width: 0px;"/>
    </g>
  </g>
  <g>
    <g>
      <line x1="26.49" y1="156.83" x2="26.46" y2="134.69" style="fill: none; stroke: #a5a5a5; stroke-miterlimit: 10; stroke-width: .75px;"/>
      <polygon points="28.1 135.8 26.46 129.7 24.83 135.8 28.1 135.8" style="fill: #a5a5a5; stroke-width: 0px;"/>
    </g>
    <g>
      <line x1="48.38" y1="156.53" x2="26.23" y2="156.55" style="fill: none; stroke: #a5a5a5; stroke-miterlimit: 10; stroke-width: .75px;"/>
      <polygon points="47.26 154.89 53.36 156.52 47.26 158.16 47.26 154.89" style="fill: #a5a5a5; stroke-width: 0px;"/>
    </g>
  </g>
  <line x1="89.46" y1="59.88" x2="114.53" y2="59.88" style="fill: none; stroke: #a5a5a5; stroke-dasharray: 0 4; stroke-miterlimit: 10;"/>
  <line x1="26.15" y1="156.72" x2="46.36" y2="171.55" style="fill: none; stroke: #a5a5a5; stroke-dasharray: 0 4; stroke-miterlimit: 10;"/>
  <text transform="translate(108.27 57.63)" style="fill: #a5a5a5; font-family: ArialMT, Arial; font-size: 12px;"><tspan x="0" y="0">θ</tspan></text>
  <text transform="translate(42.76 168.01)" style="fill: #a5a5a5; font-family: ArialMT, Arial; font-size: 12px;"><tspan x="0" y="0">θ</tspan></text>
</svg>